<?xml version="1.0" encoding="iso-8859-1"?>
<!-- Generator: Adobe Illustrator 19.0.0, SVG Export Plug-In . SVG Version: 6.00 Build 0)  -->
<svg version="1.1" id="Capa_1" xmlns="http://www.w3.org/2000/svg" xmlns:xlink="http://www.w3.org/1999/xlink" x="0px" y="0px"
	 viewBox="0 0 479.984 479.984" style="enable-background:new 0 0 479.984 479.984;" xml:space="preserve">
<g>
	<path style="fill:#57A4FF;" d="M344.066,344h48v48h-48V344z"/>
	<path style="fill:#57A4FF;" d="M432.066,286.08c-18.257-14.322-40.795-22.098-64-22.08c-49.964,0.011-92.859,35.55-102.16,84.64
		c-5.618,29.406,1.763,59.804,20.24,83.36c6.644,8.487,14.549,15.907,23.44,22c47.687,32.016,112.299,19.312,144.315-28.375
		C484.169,380.542,474.658,319.762,432.066,286.08L432.066,286.08z M432.066,392h-40h-48v-48h48v48H432.066z"/>
</g>
<path style="fill:#BDDBFF;" d="M265.906,348.64c10.691-56.434,65.107-93.516,121.541-82.824c1.547,0.293,3.087,0.621,4.619,0.984
	c14.585,3.418,28.24,10,40,19.28V8h-424v424h278.08C267.669,408.444,260.289,378.046,265.906,348.64z"/>
<g>
	<path style="fill:#231F20;" d="M336.066,96h-280c-4.418,0-8-3.582-8-8s3.582-8,8-8h280c4.418,0,8,3.582,8,8S340.485,96,336.066,96z
		"/>
	<path style="fill:#231F20;" d="M336.066,160h-280c-4.418,0-8-3.582-8-8s3.582-8,8-8h280c4.418,0,8,3.582,8,8
		S340.485,160,336.066,160z"/>
	<path style="fill:#231F20;" d="M336.066,224h-280c-4.418,0-8-3.582-8-8s3.582-8,8-8h280c4.418,0,8,3.582,8,8
		S340.485,224,336.066,224z"/>
	<path style="fill:#231F20;" d="M440.066,282.464V8c0-4.418-3.582-8-8-8h-424c-4.418,0-8,3.582-8,8v424c0,4.418,3.582,8,8,8h274.4
		c6.575,7.864,14.188,14.797,22.632,20.608c51.103,34.749,120.7,21.492,155.45-29.612
		C492.807,383.556,483.96,319.404,440.066,282.464z M16.066,424V16h408v255.016c-2.432-1.408-4.915-2.723-7.448-3.944l-0.672-0.296
		c-3.024-1.44-6.112-2.696-9.232-3.848c-0.864-0.32-1.728-0.632-2.6-0.928c-3.36-1.144-6.752-2.184-10.184-2.984
		c-60.284-14.205-120.67,23.15-134.875,83.435c-1.973,8.374-2.976,16.947-2.989,25.549c0,2.88,0.136,5.744,0.352,8.584
		c0.064,0.88,0.168,1.752,0.256,2.624c0.192,2,0.432,4,0.736,5.952c0.144,0.952,0.296,1.896,0.464,2.84
		c0.36,2.024,0.8,4,1.264,6.024c0.176,0.76,0.336,1.536,0.528,2.288c0.704,2.72,1.496,5.408,2.4,8.056
		c0.128,0.36,0.28,0.72,0.408,1.08c0.805,2.283,1.691,4.536,2.656,6.76c0.352,0.8,0.728,1.6,1.104,2.4
		c0.8,1.792,1.696,3.576,2.624,5.328c0.432,0.8,0.864,1.6,1.32,2.448c0.296,0.528,0.56,1.072,0.864,1.6L16.066,424z M368.066,464
		c-19.25,0.044-38.063-5.744-53.96-16.6c-8.222-5.633-15.531-12.494-21.672-20.344c-17.052-21.741-23.859-49.798-18.664-76.936
		c9.875-52.092,60.108-86.315,112.2-76.441c1.434,0.272,2.861,0.576,4.28,0.913c3.803,0.906,7.544,2.055,11.2,3.44
		c49.688,18.497,74.973,73.773,56.476,123.461C443.949,439.037,408.128,463.955,368.066,464L368.066,464z"/>
	<path style="fill:#231F20;" d="M432.066,384h-32v-32h32c4.418,0,8-3.582,8-8s-3.582-8-8-8h-32v-32c0-4.418-3.582-8-8-8
		s-8,3.582-8,8v32h-32v-32c0-4.418-3.582-8-8-8s-8,3.582-8,8v32h-32c-4.418,0-8,3.582-8,8s3.582,8,8,8h32v32h-32
		c-4.418,0-8,3.582-8,8s3.582,8,8,8h32v32c0,4.418,3.582,8,8,8s8-3.582,8-8v-32h32v32c0,4.418,3.582,8,8,8s8-3.582,8-8v-32h32
		c4.418,0,8-3.582,8-8S436.485,384,432.066,384z M352.066,384v-32h32v32H352.066z"/>
	<path style="fill:#231F20;" d="M264.066,280c0-4.418-3.582-8-8-8h-200c-4.418,0-8,3.582-8,8s3.582,8,8,8h200
		C260.485,288,264.066,284.418,264.066,280z"/>
</g>
<g>
</g>
<g>
</g>
<g>
</g>
<g>
</g>
<g>
</g>
<g>
</g>
<g>
</g>
<g>
</g>
<g>
</g>
<g>
</g>
<g>
</g>
<g>
</g>
<g>
</g>
<g>
</g>
<g>
</g>
</svg>
