<svg height="512" viewBox="0 0 512 512" width="512" xmlns="http://www.w3.org/2000/svg"><g id="Blue"><path d="m24 128h464a0 0 0 0 1 0 0v344a16 16 0 0 1 -16 16h-432a16 16 0 0 1 -16-16v-344a0 0 0 0 1 0 0z" fill="#bbd1fb"/><path d="m40 56h432a16 16 0 0 1 16 16v64a0 0 0 0 1 0 0h-464a0 0 0 0 1 0 0v-64a16 16 0 0 1 16-16z" fill="#4282f5"/><rect fill="#206df3" height="64" rx="16" width="32" x="72" y="24"/><rect fill="#206df3" height="64" rx="16" width="32" x="296" y="24"/><rect fill="#206df3" height="64" rx="16" width="32" x="184" y="24"/><rect fill="#206df3" height="64" rx="16" width="32" x="408" y="24"/><path d="m144 176h224v272h-224z" fill="#6498f6"/><path d="m232 384v-24a24 24 0 0 0 -48 0v24l-8 16h24a8 8 0 0 0 16 0h24z" fill="#4282f5"/><path d="m232 264v-24a24 24 0 0 0 -48 0v24l-8 16h24a8 8 0 0 0 16 0h24z" fill="#4282f5"/><g fill="#0444b7"><path d="m144 456h224a8 8 0 0 0 8-8v-272a8 8 0 0 0 -8-8h-224a8 8 0 0 0 -8 8v272a8 8 0 0 0 8 8zm8-272h208v256h-208z"/><path d="m240 382.111v-22.111a32 32 0 0 0 -64 0v22.111l-7.155 14.311a8 8 0 0 0 7.155 11.578h24v8h16v-8h24a8 8 0 0 0 7.155-11.578zm-51.056 9.889 2.211-4.422a7.994 7.994 0 0 0 .845-3.578v-24a16 16 0 0 1 32 0v24a7.994 7.994 0 0 0 .845 3.578l2.211 4.422z"/><path d="m240 262.111v-22.111a32 32 0 0 0 -64 0v22.111l-7.155 14.311a8 8 0 0 0 7.155 11.578h24v8h16v-8h24a8 8 0 0 0 7.155-11.578zm-51.056 9.889 2.211-4.422a7.994 7.994 0 0 0 .845-3.578v-24a16 16 0 0 1 32 0v24a7.994 7.994 0 0 0 .845 3.578l2.211 4.422z"/><path d="m264 392h80v16h-80z"/><path d="m264 360h80v16h-80z"/><path d="m288 328h32v16h-32z"/><path d="m264 272h80v16h-80z"/><path d="m264 240h80v16h-80z"/><path d="m288 208h32v16h-32z"/><path d="m472 48h-24v-8a24 24 0 0 0 -48 0v8h-64v-8a24 24 0 0 0 -48 0v8h-64v-8a24 24 0 0 0 -48 0v8h-64v-8a24 24 0 0 0 -48 0v8h-24a24.028 24.028 0 0 0 -24 24v400a24.028 24.028 0 0 0 24 24h432a24.028 24.028 0 0 0 24-24v-400a24.028 24.028 0 0 0 -24-24zm-56-8a8 8 0 0 1 16 0v32a8 8 0 0 1 -16 0zm-112 0a8 8 0 0 1 16 0v32a8 8 0 0 1 -16 0zm-112 0a8 8 0 0 1 16 0v32a8 8 0 0 1 -16 0zm-112 0a8 8 0 0 1 16 0v32a8 8 0 0 1 -16 0zm400 432a8.009 8.009 0 0 1 -8 8h-432a8.009 8.009 0 0 1 -8-8v-328h448zm0-344h-448v-56a8.009 8.009 0 0 1 8-8h24v8a24 24 0 0 0 48 0v-8h64v8a24 24 0 0 0 48 0v-8h64v8a24 24 0 0 0 48 0v-8h64v8a24 24 0 0 0 48 0v-8h24a8.009 8.009 0 0 1 8 8z"/></g></g></svg>